<svg id="Camada_1" data-name="Camada 1" xmlns="http://www.w3.org/2000/svg" viewBox="0 0 56 56"><defs><style>.cls-1{fill:#e5334f;}</style></defs><title>ler</title><path class="cls-1" d="M8.91,7h0a1.94,1.94,0,0,0-1.38.57A2,2,0,0,0,7,9V38.47a2,2,0,0,0,2,2c4.58,0,12.26,1,17.55,6.5V16.06a1.87,1.87,0,0,0-.27-1C21.86,8.07,13.51,7,8.91,7Zm0,0"/><path class="cls-1" d="M49.05,38.47V9a2,2,0,0,0-.58-1.4A1.94,1.94,0,0,0,47.09,7h0C42.5,7,34.15,8.07,29.8,15.06a1.87,1.87,0,0,0-.27,1V46.94c5.29-5.54,13-6.49,17.55-6.5a2,2,0,0,0,2-2Zm0,0"/><path class="cls-1" d="M53.53,13.8H52.1V38.47a5,5,0,0,1-5,5c-3.89,0-10.3.77-14.83,5.07,7.84-1.92,16.12-.68,20.83.4a2,2,0,0,0,1.67-.38A2,2,0,0,0,55.5,47V15.76a2,2,0,0,0-2-2Zm0,0"/><path class="cls-1" d="M3.9,38.47V13.8H2.47a2,2,0,0,0-2,2V47a2,2,0,0,0,.74,1.54A2,2,0,0,0,2.91,49c4.72-1.08,13-2.33,20.84-.4-4.54-4.3-10.95-5.06-14.84-5.07a5,5,0,0,1-5-5Zm0,0"/></svg>